<!-- MingCute power_fill (Apache-2.0, mingcute_icon 2.9.72), for Roue.
     Filled, not stroked: currentColor is the fill, which icons.rs swaps
     for the normal/accent colours exactly as it did the Lucide stroke. -->
<svg xmlns="http://www.w3.org/2000/svg" width="24" height="24" viewBox="0 0 24 24">
  <path fill="currentColor" fill-rule="evenodd" d="M13.5 3a1.5 1.5 0 0 0-3 0v10a1.5 1.5 0 0 0 3 0zM7.854 5.75a1.5 1.5 0 1 0-1.661-2.5A10.49 10.49 0 0 0 1.5 12c0 5.799 4.701 10.5 10.5 10.5S22.5 17.799 22.5 12c0-3.654-1.867-6.87-4.693-8.75a1.5 1.5 0 0 0-1.66 2.5a7.5 7.5 0 1 1-8.292 0" clip-rule="evenodd"/>
</svg>
